<svg width="51" height="50" viewBox="0 0 51 50" fill="none" xmlns="http://www.w3.org/2000/svg">
<mask id="path-1-inside-1_77_1408" fill="white">
<path d="M0.5 25C0.5 11.1929 11.6929 0 25.5 0C39.3071 0 50.5 11.1929 50.5 25C50.5 38.8071 39.3071 50 25.5 50C11.6929 50 0.5 38.8071 0.5 25Z"/>
</mask>
<path d="M0.5 25C0.5 11.1929 11.6929 0 25.5 0C39.3071 0 50.5 11.1929 50.5 25C50.5 38.8071 39.3071 50 25.5 50C11.6929 50 0.5 38.8071 0.5 25Z" fill="white"/>
<path d="M0.5 0H50.5H0.5ZM50.5 26.2281C50.5 40.0352 39.3071 51.2281 25.5 51.2281C11.6929 51.2281 0.5 40.0352 0.5 26.2281V25C0.5 38.1289 11.6929 48.7719 25.5 48.7719C39.3071 48.7719 50.5 38.1289 50.5 25V26.2281ZM0.5 50V0V50ZM50.5 0V50V0Z" fill="#AC1F25" mask="url(#path-1-inside-1_77_1408)"/>
<g clip-path="url(#clip0_77_1408)">
<path d="M34.3902 35.4565C34.2184 35.628 34.0688 35.7809 33.8498 35.975C28.9816 40.3562 23.2895 36.9293 18.6805 32.3195C13.9319 27.5709 10.7112 21.9453 15.025 17.1503C15.1596 16.9999 15.2146 16.9402 15.5425 16.6119C15.5425 16.6119 15.5435 16.6104 15.544 16.6104L20.8514 21.9183L20.3222 22.4475L19.5447 23.2245C19.3137 23.4554 19.3137 23.8302 19.5447 24.0606L23.2421 27.758L26.9389 31.4553C27.1698 31.6863 27.5446 31.6863 27.7755 31.4553L28.5525 30.6778L29.0823 30.1491L34.3902 35.4565Z" fill="#FF3369"/>
<path d="M34.3902 35.4566C34.2184 35.628 34.0688 35.781 33.8498 35.9751C28.9816 40.3563 23.2895 36.9293 18.6805 32.3196L23.2421 27.7581L26.9389 31.4554C27.1699 31.6864 27.5446 31.6864 27.7756 31.4554L28.5526 30.6779L29.0823 30.1492L34.3902 35.4566Z" fill="#DB2556"/>
<path d="M22.0925 20.6769L20.8516 21.9184L20.3219 22.4475L15.0247 17.1503C15.1593 17.0001 15.2147 16.9403 15.5427 16.6118C15.5427 16.6118 15.5432 16.6106 15.5438 16.6106C15.7703 16.383 16.1266 16.0273 16.7293 15.4246C17.2013 14.9525 17.7847 15.0285 18.1253 15.3691L22.0925 19.3362C22.4648 19.7085 22.4598 20.3096 22.0925 20.6769Z" fill="#44446B"/>
<path d="M35.6974 34.142C35.6506 34.1982 35.739 34.107 34.39 35.4566C34.2187 35.6275 34.0736 35.7758 33.8499 35.9752L28.5526 30.6779L29.0822 30.1489L30.3309 28.9002C30.683 28.5479 31.2864 28.5299 31.6639 28.9074L35.631 32.8745C35.9778 33.2213 35.9999 33.7691 35.6974 34.142Z" fill="#35355E"/>
</g>
<defs>
<clipPath id="clip0_77_1408">
<rect width="26" height="26" fill="white" transform="translate(13 12)"/>
</clipPath>
</defs>
</svg>
