<svg width="22" height="23" viewBox="0 0 22 23" fill="none" xmlns="http://www.w3.org/2000/svg">
<path d="M17.6268 14.4884L15.2985 14.2226C15.0247 14.1905 14.7472 14.2208 14.4868 14.3113C14.2264 14.4018 13.99 14.5501 13.7951 14.7451L12.1085 16.4318C9.50623 15.1083 7.3911 12.9932 6.06764 10.3909L7.76347 8.69511C8.15764 8.30094 8.35014 7.75095 8.28597 7.19178L8.02014 4.88178C7.96817 4.43461 7.75357 4.02216 7.41719 3.72297C7.08081 3.42378 6.64615 3.25874 6.19597 3.25928H4.61014C3.57431 3.25928 2.71264 4.12095 2.7768 5.15678C3.26264 12.9851 9.52347 19.2368 17.3426 19.7226C18.3785 19.7868 19.2401 18.9251 19.2401 17.8893V16.3034C19.2493 15.3776 18.5526 14.5984 17.6268 14.4884Z" fill="white"/>
</svg>
