<svg width="19" height="19" viewBox="0 0 19 19" fill="none" xmlns="http://www.w3.org/2000/svg">
<path d="M12.1499 1.46445C11.9518 1.55029 11.6216 1.98612 11.3905 2.48137C11.133 3.04266 11.0273 3.65018 11.1198 4.086L11.1924 4.40957L10.2547 5.34726L9.31705 6.28494L8.95386 6.18589C7.13132 5.70384 5.23614 6.08684 4.0079 7.18961C3.64471 7.51978 3.53246 7.81033 3.67113 8.08107C3.71735 8.16691 4.3843 8.88008 5.1635 9.65928L6.57663 11.079L4.46354 13.1921C2.81929 14.8364 2.34384 15.3514 2.31082 15.5099C2.23158 15.9391 2.63439 16.3287 3.05701 16.2363C3.18908 16.2033 3.87583 15.5627 5.355 14.0836L7.46809 11.9705L8.92084 13.4166C9.87834 14.3741 10.4396 14.8826 10.5651 14.9156C10.8424 14.9816 11.1528 14.8033 11.4962 14.3675C11.899 13.8591 12.2292 13.1789 12.3942 12.5054C12.5197 12.0233 12.5329 11.8186 12.4999 10.9866C12.4801 10.3791 12.4273 9.86399 12.3546 9.59985L12.2424 9.18384L13.1536 8.26596L14.0715 7.35469L14.4545 7.42733C14.963 7.51978 15.5243 7.41412 16.1186 7.12357C16.9242 6.72077 17.2477 6.31135 17.0827 5.90855C17.0364 5.80949 16.0459 4.76616 14.8771 3.59735C13.0348 1.755 12.7178 1.46445 12.5197 1.43803C12.3942 1.41822 12.2292 1.43143 12.1499 1.46445ZM14.0055 4.57466C14.7979 5.36707 15.4318 6.04061 15.4054 6.06703C15.2997 6.17929 14.6394 6.17268 14.3092 6.06042C14.1045 5.99439 13.8932 5.96798 13.7876 5.99439C13.53 6.05382 11.0273 8.56312 10.9283 8.84706C10.8688 9.02536 10.8821 9.14422 10.9943 9.48099C11.3971 10.7158 11.3377 12.1158 10.8424 13.0799C10.783 13.1987 10.7104 13.2912 10.684 13.2912C10.6575 13.2912 9.40949 12.0629 7.91052 10.564L5.18331 7.83674L5.5465 7.65845C6.53041 7.1764 7.81147 7.14999 9.17177 7.57921C9.54156 7.69807 9.56137 7.69807 9.77928 7.58581C10.1029 7.40752 12.4933 4.97086 12.5395 4.76616C12.5659 4.6671 12.5395 4.469 12.4867 4.31052C12.348 3.92092 12.3678 3.12191 12.5131 3.12191C12.5329 3.12191 13.2065 3.77564 14.0055 4.57466Z" fill="white"/>
<path d="M9.51568 9.34893C9.31758 9.51401 9.28456 9.81116 9.41003 10.1413C9.44965 10.247 9.48267 10.4121 9.48267 10.5177C9.48267 11.0262 10.1232 11.2639 10.46 10.8809C10.6052 10.7092 10.6185 10.6498 10.5788 10.2998C10.4798 9.36213 9.99773 8.93291 9.51568 9.34893Z" fill="white"/>
</svg>
