<svg width="176" height="33" viewBox="0 0 176 33" fill="none" xmlns="http://www.w3.org/2000/svg">
<path d="M15.8753 3.31846C16.2146 2.27395 17.6923 2.27395 18.0317 3.31846L20.3473 10.4451C20.4991 10.9122 20.9344 11.2285 21.4255 11.2285H28.9189C30.0172 11.2285 30.4738 12.6339 29.5853 13.2794L23.523 17.6839C23.1257 17.9726 22.9594 18.4843 23.1112 18.9514L25.4268 26.0781C25.7661 27.1226 24.5707 27.9911 23.6821 27.3456L17.6199 22.9411C17.2225 22.6524 16.6845 22.6524 16.2871 22.9411L10.2248 27.3456C9.33632 27.9911 8.14083 27.1226 8.48021 26.0781L10.7958 18.9514C10.9476 18.4843 10.7813 17.9726 10.3839 17.6839L4.32168 13.2794C3.43316 12.6339 3.8898 11.2285 4.98806 11.2285H12.4814C12.9726 11.2285 13.4079 10.9122 13.5597 10.4451L15.8753 3.31846Z" fill="#FFA800"/>
<path d="M51.3985 3.31846C51.7378 2.27395 53.2155 2.27395 53.5549 3.31846L55.8705 10.4451C56.0223 10.9122 56.4576 11.2285 56.9487 11.2285H64.4421C65.5404 11.2285 65.997 12.6339 65.1085 13.2794L59.0462 17.6839C58.6489 17.9726 58.4826 18.4843 58.6344 18.9514L60.95 26.0781C61.2893 27.1226 60.0939 27.9911 59.2053 27.3456L53.1431 22.9411C52.7457 22.6524 52.2077 22.6524 51.8103 22.9411L45.748 27.3456C44.8595 27.9911 43.664 27.1226 44.0034 26.0781L46.319 18.9514C46.4708 18.4843 46.3045 17.9726 45.9071 17.6839L39.8449 13.2794C38.9564 12.6339 39.413 11.2285 40.5113 11.2285H48.0046C48.4958 11.2285 48.9311 10.9122 49.0829 10.4451L51.3985 3.31846Z" fill="#FFA800"/>
<path d="M86.9218 3.31846C87.2611 2.27395 88.7389 2.27395 89.0782 3.31846L91.3938 10.4451C91.5456 10.9122 91.9809 11.2285 92.472 11.2285H99.9654C101.064 11.2285 101.52 12.6339 100.632 13.2794L94.5695 17.6839C94.1722 17.9726 94.0059 18.4843 94.1577 18.9514L96.4733 26.0781C96.8127 27.1226 95.6172 27.9911 94.7287 27.3456L88.6664 22.9411C88.269 22.6524 87.731 22.6524 87.3336 22.9411L81.2713 27.3456C80.3828 27.9911 79.1873 27.1226 79.5267 26.0781L81.8423 18.9514C81.9941 18.4843 81.8278 17.9726 81.4305 17.6839L75.3682 13.2794C74.4797 12.6339 74.9363 11.2285 76.0346 11.2285H83.528C84.0191 11.2285 84.4544 10.9122 84.6062 10.4451L86.9218 3.31846Z" fill="#FFA800"/>
<path d="M122.445 3.31846C122.784 2.27395 124.262 2.27395 124.602 3.31846L126.917 10.4451C127.069 10.9122 127.504 11.2285 127.995 11.2285H135.489C136.587 11.2285 137.044 12.6339 136.155 13.2794L130.093 17.6839C129.696 17.9726 129.529 18.4843 129.681 18.9514L131.997 26.0781C132.336 27.1226 131.14 27.9911 130.252 27.3456L124.19 22.9411C123.792 22.6524 123.254 22.6524 122.857 22.9411L116.795 27.3456C115.906 27.9911 114.711 27.1226 115.05 26.0781L117.366 18.9514C117.517 18.4843 117.351 17.9726 116.954 17.6839L110.891 13.2794C110.003 12.6339 110.46 11.2285 111.558 11.2285H119.051C119.542 11.2285 119.978 10.9122 120.129 10.4451L122.445 3.31846Z" fill="#FFA800"/>
<path d="M157.968 3.31846C158.308 2.27395 159.785 2.27395 160.125 3.31846L162.44 10.4451C162.592 10.9122 163.027 11.2285 163.519 11.2285H171.012C172.11 11.2285 172.567 12.6339 171.678 13.2794L165.616 17.6839C165.219 17.9726 165.052 18.4843 165.204 18.9514L167.52 26.0781C167.859 27.1226 166.664 27.9911 165.775 27.3456L159.713 22.9411C159.316 22.6524 158.777 22.6524 158.38 22.9411L152.318 27.3456C151.429 27.9911 150.234 27.1226 150.573 26.0781L152.889 18.9514C153.041 18.4843 152.874 17.9726 152.477 17.6839L146.415 13.2794C145.526 12.6339 145.983 11.2285 147.081 11.2285H154.574C155.066 11.2285 155.501 10.9122 155.653 10.4451L157.968 3.31846Z" fill="#FFA800"/>
</svg>
