<svg width="50" height="50" viewBox="0 0 50 50" fill="none" xmlns="http://www.w3.org/2000/svg">
<mask id="path-1-inside-1_77_1258" fill="white">
<path d="M0 25C0 11.1929 11.1929 0 25 0C38.8071 0 50 11.1929 50 25C50 38.8071 38.8071 50 25 50C11.1929 50 0 38.8071 0 25Z"/>
</mask>
<path d="M0 25C0 11.1929 11.1929 0 25 0C38.8071 0 50 11.1929 50 25C50 38.8071 38.8071 50 25 50C11.1929 50 0 38.8071 0 25Z" fill="white"/>
<path d="M0 0H50H0ZM50 26.2281C50 40.0352 38.8071 51.2281 25 51.2281C11.1929 51.2281 0 40.0352 0 26.2281V25C0 38.1289 11.1929 48.7719 25 48.7719C38.8071 48.7719 50 38.1289 50 25V26.2281ZM0 50V0V50ZM50 0V50V0Z" fill="#AC1F25" mask="url(#path-1-inside-1_77_1258)"/>
<path d="M32.9783 34.7351L32.9783 34.7351L34.735 32.9784C34.7351 32.9784 34.7351 32.9784 34.7351 32.9784C34.956 32.7574 34.956 32.3989 34.7351 32.178C32.848 30.2908 34.1869 27.058 36.8558 27.058C37.1686 27.058 37.4218 26.8046 37.4217 26.492V24.0078C37.4217 23.6953 37.1684 23.4418 36.8558 23.4418C35.5888 23.4418 34.6197 22.7097 34.1564 21.7442L33.1916 21.5467L32.3115 22.0451L32.3114 22.0452L32.1882 21.8277C32.1287 21.8614 32.0573 21.8533 32.0069 21.8071L32.9783 34.7351ZM32.9783 34.7351C32.7574 34.9561 32.3989 34.9561 32.1779 34.7351L32.1779 34.7351M32.9783 34.7351L32.1779 34.7351M33.2069 21.2947L34.2531 21.5088M33.2069 21.2947C33.1687 21.2869 33.1333 21.2924 33.0993 21.3117L34.2531 21.5088M33.2069 21.2947L33.1758 21.4468L33.1758 21.4468L33.1568 21.5396L33.1569 21.5396M33.2069 21.2947L33.1758 21.4469L33.2225 21.5292L33.2225 21.5292M34.2531 21.5088C34.3031 21.519 34.3416 21.5497 34.3629 21.596L34.2531 21.5088ZM33.2225 21.5292L33.1758 21.4469L33.1569 21.5396M33.2225 21.5292C33.2156 21.5331 33.2047 21.5377 33.1906 21.54C33.1765 21.5422 33.1646 21.5412 33.1569 21.5396M33.2225 21.5292L33.1569 21.5396M32.1779 34.7351C31.7608 34.318 31.2747 34.0573 30.7705 33.9352M32.1779 34.7351L30.7705 33.9352M16.3684 23.9139L16.3684 23.9139C16.2117 23.9726 16.0385 23.9307 15.926 23.8068L15.2049 23.0123C14.7621 23.2826 14.234 23.442 13.6441 23.442C13.3314 23.442 13.0781 23.6954 13.0781 24.0079V26.4921C13.0781 26.8046 13.3314 27.058 13.6441 27.058C16.3131 27.058 17.6518 30.2909 15.7648 32.178C15.5439 32.3989 15.5438 32.7574 15.7648 32.9785C15.7648 32.9785 15.7648 32.9785 15.7648 32.9785L17.5215 34.7352C17.7425 34.9562 18.101 34.9562 18.322 34.7352C20.2112 32.8459 23.4419 34.184 23.4419 36.8559C23.4419 37.1686 23.6953 37.4219 24.0078 37.4219H26.4921C26.8046 37.4219 27.058 37.1686 27.058 36.8559C27.058 35.589 27.7901 34.6198 28.7556 34.1566L28.9531 33.1918L28.4547 32.3117L16.3684 23.9139ZM16.3684 23.9139L18.0247 23.2929L18.0247 23.2929M16.3684 23.9139L18.0247 23.2929M18.0247 23.2929C18.1901 23.2308 18.2951 23.0721 18.2873 22.8956L18.2873 22.8954M18.0247 23.2929L18.2873 22.8954M30.7705 33.9352L30.8223 32.8635C30.8223 32.8635 30.8223 32.8635 30.8223 32.8634C30.8304 32.6962 30.7375 32.5441 30.5852 32.4749L28.975 31.7429C28.975 31.7429 28.975 31.7429 28.975 31.7429L30.7705 33.9352ZM18.2873 22.8954C18.2794 22.7191 18.1609 22.57 17.9904 22.5228M18.2873 22.8954L17.9904 22.5228M17.9904 22.5228L17.0157 22.253L16.4731 21.431C16.8281 20.4206 16.6605 19.2177 15.7647 18.3219C15.5438 18.101 15.5437 17.7425 15.7647 17.5215C15.7647 17.5215 15.7647 17.5215 15.7647 17.5215L17.5214 15.7648C17.7423 15.5439 18.1009 15.5438 18.3219 15.7648C20.2089 17.6519 23.4418 16.3131 23.4418 13.6441C23.4418 13.3314 23.6952 13.0781 24.0077 13.0781H26.492C26.8045 13.0781 27.0579 13.3314 27.0579 13.6441C27.0579 16.3131 30.2908 17.6519 32.1779 15.7648C32.3989 15.5438 32.7574 15.5439 32.9783 15.7648L34.735 17.5215C34.735 17.5215 34.735 17.5215 34.735 17.5215C34.956 17.7425 34.9559 18.101 34.735 18.3219C34.3179 18.739 34.0572 19.2251 33.9351 19.7294L32.8634 19.6775L32.8633 19.6775L32.8512 19.9272L17.9904 22.5228ZM34.0142 19.7332C34.0143 19.7332 34.0144 19.7332 34.0145 19.7332L34.0145 19.7332L34.0142 19.7332Z" fill="#FDCD56" stroke="black" stroke-width="0.5"/>
<path d="M31.1972 25.586C31.3818 22.2964 28.8647 19.4799 25.575 19.2953C22.2853 19.1107 19.4689 21.6279 19.2843 24.9176C19.0997 28.2072 21.6169 31.0237 24.9065 31.2083C28.1962 31.3928 31.0126 28.8757 31.1972 25.586Z" fill="#F4F6F8"/>
<path fill-rule="evenodd" clip-rule="evenodd" d="M25.6981 21.6522L28.657 26.7772C28.752 26.9418 28.752 27.1302 28.657 27.2948C28.562 27.4593 28.3988 27.5535 28.2088 27.5535H22.291C22.1009 27.5535 21.9378 27.4593 21.8428 27.2948C21.7477 27.1302 21.7477 26.9418 21.8428 26.7772L24.8016 21.6522C24.8967 21.4876 25.0598 21.3934 25.2499 21.3934C25.4399 21.3934 25.6031 21.4876 25.6981 21.6522Z" fill="#FDCD56"/>
</svg>
