<svg width="50" height="50" viewBox="0 0 50 50" fill="none" xmlns="http://www.w3.org/2000/svg">
<mask id="path-1-inside-1_77_1296" fill="white">
<path d="M0 25C0 11.1929 11.1929 0 25 0C38.8071 0 50 11.1929 50 25C50 38.8071 38.8071 50 25 50C11.1929 50 0 38.8071 0 25Z"/>
</mask>
<path d="M0 25C0 11.1929 11.1929 0 25 0C38.8071 0 50 11.1929 50 25C50 38.8071 38.8071 50 25 50C11.1929 50 0 38.8071 0 25Z" fill="white"/>
<path d="M0 0H50H0ZM50 26.2281C50 40.0352 38.8071 51.2281 25 51.2281C11.1929 51.2281 0 40.0352 0 26.2281V25C0 38.1289 11.1929 48.7719 25 48.7719C38.8071 48.7719 50 38.1289 50 25V26.2281ZM0 50V0V50ZM50 0V50V0Z" fill="#AC1F25" mask="url(#path-1-inside-1_77_1296)"/>
<g clip-path="url(#clip0_77_1296)">
<path d="M32.3432 31.4729H17.6572C17.2366 31.4729 16.8955 31.1318 16.8955 30.7112V25C16.8955 20.531 20.5312 16.8953 25.0002 16.8953C29.4691 16.8953 33.1049 20.531 33.1049 25V30.7112C33.1049 31.1318 32.7638 31.4729 32.3432 31.4729Z" fill="#F0142D"/>
<path d="M33.1047 30.7112V25C33.1047 20.531 29.469 16.8953 25 16.8953V31.4729H32.343C32.7636 31.4729 33.1047 31.1318 33.1047 30.7112Z" fill="#B40000"/>
<path d="M27.4476 31.4729H22.5522C22.1316 31.4729 21.7905 31.1319 21.7905 30.7112V25C21.7905 23.2076 23.2489 21.7906 24.9999 21.7906C26.7442 21.7906 28.2093 23.2005 28.2093 25V30.7112C28.2093 31.1319 27.8682 31.4729 27.4476 31.4729Z" fill="#FF6400"/>
<path d="M14.3935 25.7617H12.7617C12.341 25.7617 12 25.4207 12 25C12 24.5793 12.341 24.2383 12.7617 24.2383H14.3935C14.8142 24.2383 15.1552 24.5793 15.1552 25C15.1552 25.4207 14.8142 25.7617 14.3935 25.7617Z" fill="#FF6400"/>
<path d="M37.2383 25.7617H35.6064C35.1858 25.7617 34.8447 25.4207 34.8447 25C34.8447 24.5793 35.1858 24.2383 35.6064 24.2383H37.2383C37.6589 24.2383 38 24.5793 38 25C38 25.4207 37.6589 25.7617 37.2383 25.7617Z" fill="#FF6400"/>
<path d="M25 15.1552C24.5793 15.1552 24.2383 14.8141 24.2383 14.3935V12.7617C24.2383 12.341 24.5793 12 25 12C25.4207 12 25.7617 12.341 25.7617 12.7617V14.3935C25.7617 14.8141 25.4207 15.1552 25 15.1552Z" fill="#FF6400"/>
<path d="M15.4313 20.3562L14.0198 19.5403C13.6556 19.3298 13.531 18.8639 13.7416 18.4997C13.9521 18.1354 14.418 18.0108 14.7822 18.2214L16.1937 19.0373C16.5579 19.2479 16.6825 19.7138 16.4719 20.078C16.2886 20.3952 15.8387 20.5918 15.4313 20.3562Z" fill="#FF6400"/>
<path d="M33.5277 20.078C33.3171 19.7138 33.4417 19.2478 33.8059 19.0373L35.2174 18.2214C35.5815 18.0109 36.0475 18.1354 36.258 18.4996C36.4686 18.8638 36.3439 19.3298 35.9798 19.5403L34.5683 20.3562C34.1516 20.5971 33.7064 20.3871 33.5277 20.078Z" fill="#FF6400"/>
<path d="M19.0372 16.1952L18.2213 14.7821C18.011 14.4178 18.1358 13.9519 18.5001 13.7416C18.8645 13.5313 19.3303 13.656 19.5406 14.0204L20.3565 15.4335C20.5669 15.7978 20.4421 16.2636 20.0777 16.474C19.6616 16.7143 19.2162 16.5052 19.0372 16.1952Z" fill="#FF6400"/>
<path d="M29.9225 16.474C29.5581 16.2637 29.4333 15.7978 29.6437 15.4335L30.4596 14.0204C30.67 13.6561 31.1357 13.5312 31.5001 13.7416C31.8644 13.952 31.9892 14.4178 31.7789 14.7821L30.963 16.1952C30.7794 16.5132 30.3294 16.709 29.9225 16.474Z" fill="#FF6400"/>
<path d="M28.2094 30.7112V25C28.2094 23.2005 26.7443 21.7906 25 21.7906V31.4729H27.4477C27.8683 31.4729 28.2094 31.1319 28.2094 30.7112Z" fill="#F0142D"/>
<path d="M34.7907 34.7364H15.2095C14.7888 34.7364 14.4478 34.3954 14.4478 33.9747C14.4478 33.554 14.7888 33.213 15.2095 33.213C15.6892 33.213 16.0795 32.8227 16.0795 32.3429V30.7112C16.0795 30.2905 16.4206 29.9495 16.8412 29.9495H33.159C33.5796 29.9495 33.9207 30.2905 33.9207 30.7112V32.3429C33.9207 32.8227 34.311 33.213 34.7907 33.213C35.2114 33.213 35.5524 33.554 35.5524 33.9747C35.5524 34.3954 35.2114 34.7364 34.7907 34.7364Z" fill="#3C3C37"/>
<path d="M35.5523 33.9747C35.5523 33.554 35.2113 33.213 34.7906 33.213C34.3109 33.213 33.9206 32.8227 33.9206 32.3429V30.7112C33.9206 30.2905 33.5795 29.9495 33.1589 29.9495H25V34.7365H34.7906C35.2113 34.7364 35.5523 34.3954 35.5523 33.9747Z" fill="#141E14"/>
<path d="M35.6065 38.0001H14.3936C13.9729 38.0001 13.6318 37.659 13.6318 37.2384V33.9748C13.6318 33.5541 13.9729 33.2131 14.3936 33.2131H35.6065C36.0272 33.2131 36.3682 33.5541 36.3682 33.9748V37.2384C36.3682 37.659 36.0272 38.0001 35.6065 38.0001Z" fill="#64645A"/>
<path d="M36.3682 37.2384V33.9748C36.3682 33.5541 36.0271 33.2131 35.6065 33.2131H25V38.0001H35.6065C36.0271 38.0001 36.3682 37.659 36.3682 37.2384Z" fill="#3C3C37"/>
</g>
<defs>
<clipPath id="clip0_77_1296">
<rect width="26" height="26" fill="white" transform="translate(12 12)"/>
</clipPath>
</defs>
</svg>
