<svg width="50" height="50" viewBox="0 0 50 50" fill="none" xmlns="http://www.w3.org/2000/svg">
<mask id="path-1-inside-1_77_1289" fill="white">
<path d="M0 25C0 11.1929 11.1929 0 25 0C38.8071 0 50 11.1929 50 25C50 38.8071 38.8071 50 25 50C11.1929 50 0 38.8071 0 25Z"/>
</mask>
<path d="M0 25C0 11.1929 11.1929 0 25 0C38.8071 0 50 11.1929 50 25C50 38.8071 38.8071 50 25 50C11.1929 50 0 38.8071 0 25Z" fill="white"/>
<path d="M0 0H50H0ZM50 26.2281C50 40.0352 38.8071 51.2281 25 51.2281C11.1929 51.2281 0 40.0352 0 26.2281V25C0 38.1289 11.1929 48.7719 25 48.7719C38.8071 48.7719 50 38.1289 50 25V26.2281ZM0 50V0V50ZM50 0V50V0Z" fill="#AC1F25" mask="url(#path-1-inside-1_77_1289)"/>
<path d="M25.9058 31.504C26.6389 31.504 26.6389 32.2517 27.372 32.2517C28.1051 32.2517 28.1052 31.504 28.8383 31.504C29.5714 31.504 29.5715 32.2517 30.3047 32.2517C31.0379 32.2517 31.0379 31.504 31.7711 31.504C32.5044 31.504 32.5044 32.2517 33.2376 32.2517C33.9708 32.2517 33.9708 31.504 34.7041 31.504C35.4373 31.504 35.4374 32.2517 36.1708 32.2517C36.9041 32.2517 36.8418 31.504 37.5751 31.504L31.1902 22.9154H19.5696L19.8391 31.5643" fill="#DA4038"/>
<path d="M33.0816 33.5175L32.9295 33.5434C32.2205 33.5434 32.2204 34.042 31.5116 34.0421C31.2183 34.0421 31.0381 33.9347 30.81 33.7985C30.5958 33.6705 30.235 33.4715 29.976 33.5157C29.2669 33.5157 29.2669 34.0144 28.5578 34.0144C28.0765 34.0144 27.6177 33.6331 27.1851 33.4874C27.8063 34.2853 29.8475 37.1924 29.9204 37.1961C30.5583 37.2286 30.5826 37.6927 31.2666 37.6928C31.5755 37.6928 31.756 37.5733 31.9945 37.4305C32.1684 37.315 32.367 37.2418 32.5743 37.2167C32.7816 37.1916 32.9918 37.2154 33.1883 37.286C33.5694 37.4282 33.7616 37.7205 34.2204 37.7205C34.9295 37.7205 34.9295 37.2218 35.6386 37.2218L35.7941 37.1953L33.0816 33.5175Z" fill="#DA4038"/>
<path d="M34.6222 28.9448C34.7824 28.8093 34.9863 28.7366 35.196 28.7402H35.4452V28.6388L35.1509 28.2428C34.855 28.2488 34.5692 28.3518 34.3374 28.5358C34.1755 28.6681 33.9728 28.7404 33.7636 28.7404C33.5545 28.7404 33.3518 28.6681 33.1899 28.5358C33.0065 28.392 32.7898 28.2965 32.5599 28.2583L31.111 26.2838C31.2329 26.3293 31.3622 26.3519 31.4923 26.3505C31.9567 26.3505 32.1961 26.1006 32.3884 25.8999C32.5536 25.7274 32.6729 25.6028 32.9247 25.6028H33.1739V25.5835L32.8213 25.1092C32.4239 25.1432 32.2059 25.3697 32.0285 25.5551C31.8633 25.7275 31.744 25.852 31.4923 25.852C31.2406 25.852 31.1212 25.7274 30.956 25.5551C30.7933 25.3851 30.5963 25.1806 30.2582 25.1216L28.6393 22.9154H28.0211L29.6768 25.1718C29.4786 25.2584 29.303 25.3895 29.1638 25.5551C28.9986 25.7275 28.8793 25.852 28.6277 25.852C28.376 25.852 28.2567 25.7275 28.0916 25.5551C27.9455 25.3799 27.7578 25.2441 27.5456 25.1602L25.8984 22.9154H25.2801L26.9125 25.14C26.6721 25.2157 26.459 25.36 26.2994 25.5551C26.1343 25.7275 26.015 25.852 25.7633 25.852C25.5117 25.852 25.3924 25.7275 25.2273 25.5551C25.0612 25.3499 24.8351 25.2019 24.5807 25.1315L22.9569 22.9154H22.339L23.9833 25.1595C23.7703 25.2432 23.5818 25.3792 23.4352 25.5551C23.2701 25.7275 23.1509 25.852 22.8992 25.852C22.6476 25.852 22.5284 25.7275 22.3633 25.5551C22.171 25.3543 21.9317 25.1044 21.4672 25.1044H21.218V25.6028H21.4672C21.7188 25.6028 21.8381 25.7274 22.0032 25.8998C22.1955 26.1006 22.4348 26.3505 22.8992 26.3505C23.3635 26.3505 23.6029 26.1006 23.7952 25.8998C23.9551 25.7327 24.0732 25.6117 24.3091 25.6042L26.2689 28.2788C26.0784 28.3282 25.8999 28.4156 25.7441 28.5358C25.5822 28.6681 25.3796 28.7404 25.1705 28.7404C24.9615 28.7404 24.7589 28.6681 24.597 28.5358C24.3534 28.3416 24.0501 28.2377 23.7386 28.2417H23.4894V28.7402H23.7386C23.9483 28.7366 24.1521 28.8093 24.3121 28.9448C24.5577 29.1354 24.8597 29.2389 25.1705 29.2389C25.4814 29.2389 25.7834 29.1354 26.0289 28.9448C26.189 28.8093 26.3928 28.7366 26.6025 28.7402C26.6041 28.7402 26.6055 28.7404 26.6071 28.7404L28.6464 31.5235C28.7095 31.5102 28.7739 31.5037 28.8384 31.504C29.0433 31.4997 29.2422 31.5731 29.3953 31.7093L29.3987 31.7068L27.5211 29.1444C27.6843 29.2096 27.8589 29.2418 28.0347 29.2389C28.3462 29.2429 28.6495 29.139 28.8932 28.9448C29.0533 28.8094 29.2571 28.7367 29.4668 28.7402C29.4989 28.7402 29.5286 28.7417 29.557 28.744L31.5945 31.5206C31.6527 31.5094 31.7119 31.5039 31.7712 31.5041C31.9884 31.5002 32.1982 31.5824 32.3549 31.7327L32.3636 31.7263L30.4982 29.184C30.6284 29.2217 30.7635 29.2402 30.8991 29.2388C31.2106 29.2428 31.5139 29.139 31.7576 28.9448C31.909 28.818 32.0989 28.7464 32.2963 28.7416L34.3706 31.5684C34.4762 31.5242 34.5898 31.5023 34.7042 31.504C34.7945 31.5031 34.8844 31.5165 34.9706 31.5435L33.1913 29.1187C33.3705 29.2016 33.5662 29.2427 33.7636 29.2388C34.0752 29.2429 34.3785 29.139 34.6222 28.9448ZM28.6083 28.5359C28.4464 28.6682 28.2438 28.7405 28.0347 28.7405C27.8256 28.7405 27.6229 28.6682 27.461 28.5359C27.2898 28.4026 27.0903 28.3104 26.8778 28.2665L25.4393 26.3033C25.5443 26.3354 25.6535 26.3513 25.7633 26.3505C26.2277 26.3505 26.467 26.1006 26.6593 25.8998C26.8245 25.7274 26.9438 25.6028 27.1955 25.6028C27.2166 25.6028 27.2355 25.605 27.2549 25.6067L29.2049 28.2641C28.9875 28.3065 28.7831 28.3997 28.6083 28.5359ZM31.4728 28.5359C31.3108 28.6682 31.1082 28.7405 30.8991 28.7405C30.6899 28.7405 30.4873 28.6682 30.3254 28.5359C30.1805 28.425 30.0165 28.3414 29.8416 28.2894L28.4029 26.3286C28.4769 26.3434 28.5521 26.3507 28.6276 26.3505C29.092 26.3505 29.3314 26.1006 29.5236 25.8999C29.6739 25.743 29.7874 25.6268 29.996 25.607L31.9631 28.2874C31.7857 28.3391 31.6194 28.4234 31.4728 28.5359Z" fill="#AC1E22"/>
<path d="M31.4309 25.0071C34.4811 25.0071 36.9538 22.5344 36.9538 19.4842C36.9538 16.4339 34.4811 13.9612 31.4309 13.9612C28.3807 13.9612 25.908 16.4339 25.908 19.4842C25.908 22.5344 28.3807 25.0071 31.4309 25.0071Z" fill="#D5DEE2"/>
<path d="M31.4216 20.1981L32.5501 19.5466L34.0499 22.1442L32.9214 22.7958L31.4216 20.1981Z" fill="#7E8C8E"/>
<path d="M33.1053 19.9899L32.631 18.6511L30.6062 19.8202L31.5283 20.9003L33.1053 19.9899Z" fill="#657172"/>
<path d="M30.7989 17.6742L28.7258 18.871L29.6363 20.4481L32.8287 18.605C33.1405 18.425 33.4866 18.3125 33.8446 18.2749C34.2027 18.2373 34.5647 18.2754 34.907 18.3868L35.4728 18.5708L35.2003 18.0987C34.8597 17.5088 34.2987 17.0783 33.6408 16.902C32.9829 16.7257 32.2818 16.818 31.6919 17.1586L30.7989 17.6742Z" fill="#7E8C8E"/>
<path d="M27.386 19.2437L28.7998 18.4273L30.0569 20.6046L28.6431 21.4209L27.386 19.2437Z" fill="#657172"/>
<path d="M32.2175 22.3547L34.0191 21.3145L35.3291 23.5834L33.5275 24.6236L32.2175 22.3547Z" fill="#88472B"/>
<path d="M31.4308 25.6301C30.2153 25.63 29.027 25.2696 28.0163 24.5943C27.0056 23.9189 26.2179 22.9591 25.7527 21.836C25.2876 20.713 25.1659 19.4773 25.403 18.2851C25.6402 17.0929 26.2255 15.9978 27.085 15.1383C27.9446 14.2788 29.0397 13.6934 30.2319 13.4563C31.4241 13.2191 32.6598 13.3409 33.7828 13.806C34.9058 14.2712 35.8657 15.059 36.541 16.0697C37.2163 17.0804 37.5768 18.2686 37.5768 19.4842C37.5749 21.1136 36.9268 22.6758 35.7746 23.8279C34.6224 24.9801 33.0602 25.6282 31.4308 25.6301ZM31.4308 14.5843C30.4617 14.5843 29.5144 14.8717 28.7086 15.4101C27.9029 15.9485 27.2748 16.7137 26.904 17.6091C26.5331 18.5044 26.4361 19.4896 26.6252 20.44C26.8142 21.3905 27.2809 22.2636 27.9661 22.9488C28.6514 23.6341 29.5245 24.1007 30.4749 24.2898C31.4254 24.4789 32.4106 24.3818 33.3059 24.011C34.2012 23.6401 34.9665 23.0121 35.5049 22.2063C36.0433 21.4006 36.3307 20.4533 36.3307 19.4842C36.3292 18.1851 35.8125 16.9396 34.8939 16.021C33.9753 15.1025 32.7299 14.5858 31.4308 14.5843Z" fill="#2184CE"/>
<path d="M23.9332 31.5642H13.1438L19.57 22.9154L25.9962 31.5642H14.1807" fill="#7E8C8E"/>
<path d="M23.9351 31.5643H24.2941L19.5719 25.2387L14.8884 31.5643H23.9351Z" fill="#88472B"/>
</svg>
