<svg width="50" height="51" viewBox="0 0 50 51" fill="none" xmlns="http://www.w3.org/2000/svg">
<path d="M0 25C0 11.1929 11.1929 0 25 0C38.8071 0 50 11.1929 50 25C50 38.8071 38.8071 50 25 50C11.1929 50 0 38.8071 0 25Z" fill="white"/>
<path d="M0 0H50H0ZM50 25.614C50 39.4212 38.8071 50.614 25 50.614H25C11.1929 50.614 0 39.4212 0 25.614V25C0 38.468 11.1929 49.386 25 49.386C38.8071 49.386 50 38.468 50 25V25.614ZM0 50V0V50ZM50 0V50V0Z" fill="#AC1F25"/>
<path d="M13.3906 26.9531H40.0312V38.0938H13.3906V26.9531Z" fill="#95AFD1"/>
<path d="M31.3125 28.8906H40.0312V38.0938H31.3125V28.8906Z" fill="#C1CFE8"/>
<path d="M17.2351 17.75L19.6875 13.3906H40.0312V28.8906H10.9688L15.6003 20.6562L17.2351 17.75Z" fill="#828A93"/>
<path d="M31.3125 28.8906L40.0312 13.3906V28.8906H31.3125Z" fill="#585E68"/>
<path d="M30.8281 13.3906L25.3789 23.0781L33.7334 24.587L40.0312 13.3906H30.8281Z" fill="#F9CB5D"/>
<path d="M24.9933 19.4584L28.4062 13.3906H19.6875L17.2351 17.75L24.9933 19.4584Z" fill="#F9CB5D"/>
<path d="M32.2812 23.0781H24.0469C23.6615 23.0781 23.2919 23.2312 23.0194 23.5037C22.7468 23.7762 22.5938 24.1459 22.5938 24.5312C22.5938 24.9166 22.7468 25.2863 23.0194 25.5588C23.2919 25.8313 23.6615 25.9844 24.0469 25.9844H32.2812V23.0781Z" fill="#F79B31"/>
<path d="M23.5625 17.75H15.3281C14.9427 17.75 14.5731 17.9031 14.3006 18.1756C14.0281 18.4481 13.875 18.8177 13.875 19.2031C13.875 19.5885 14.0281 19.9581 14.3006 20.2306C14.5731 20.5032 14.9427 20.6562 15.3281 20.6562H23.5625V17.75Z" fill="#F79B31"/>
<path d="M23.5625 20.6562C24.365 20.6562 25.0156 20.0057 25.0156 19.2031C25.0156 18.4006 24.365 17.75 23.5625 17.75C22.76 17.75 22.1094 18.4006 22.1094 19.2031C22.1094 20.0057 22.76 20.6562 23.5625 20.6562Z" fill="#EC8329"/>
<path d="M33.7649 28.8906L40.0312 17.75V13.3906L31.3125 28.8906H33.7649Z" fill="#3C4047"/>
<path d="M32.2812 25.9844C33.0838 25.9844 33.7344 25.3338 33.7344 24.5312C33.7344 23.7287 33.0838 23.0781 32.2812 23.0781C31.4787 23.0781 30.8281 23.7287 30.8281 24.5312C30.8281 25.3338 31.4787 25.9844 32.2812 25.9844Z" fill="#EC8329"/>
<path d="M28.4558 20.9071L30.3619 17.5189L31.2053 17.9934L29.2992 21.3816L28.4558 20.9071Z" fill="#FFEACD"/>
<path d="M33.783 18.3276L35.0537 16.0688L35.8971 16.5433L34.6263 18.8021L33.783 18.3276Z" fill="#FFEACD"/>
<path d="M21.7097 16.0626L22.6477 14.3953L23.4911 14.8698L22.5531 16.5371L21.7097 16.0626Z" fill="#FFEACD"/>
<path d="M18.5017 30.3438H31.3125V38.0938H15.3281V33.5174C15.3281 32.6757 15.6625 31.8685 16.2577 31.2733C16.8528 30.6781 17.6601 30.3438 18.5017 30.3438Z" fill="#A5BADB"/>
<path d="M40.0312 38.0938V30.3438H36.3098C35.8444 30.3438 35.3835 30.4354 34.9535 30.6135C34.5235 30.7916 34.1328 31.0527 33.8037 31.3818C33.4746 31.7109 33.2135 32.1016 33.0354 32.5316C32.8573 32.9616 32.7656 33.4225 32.7656 33.8879V38.0938H40.0312Z" fill="#D7E0EF"/>
</svg>
