<svg width="50" height="50" viewBox="0 0 50 50" fill="none" xmlns="http://www.w3.org/2000/svg">
<mask id="path-1-inside-1_77_1277" fill="white">
<path d="M0 25C0 11.1929 11.1929 0 25 0C38.8071 0 50 11.1929 50 25C50 38.8071 38.8071 50 25 50C11.1929 50 0 38.8071 0 25Z"/>
</mask>
<path d="M0 25C0 11.1929 11.1929 0 25 0C38.8071 0 50 11.1929 50 25C50 38.8071 38.8071 50 25 50C11.1929 50 0 38.8071 0 25Z" fill="white"/>
<path d="M0 0H50H0ZM50 26.2281C50 40.0352 38.8071 51.2281 25 51.2281C11.1929 51.2281 0 40.0352 0 26.2281V25C0 38.1289 11.1929 48.7719 25 48.7719C38.8071 48.7719 50 38.1289 50 25V26.2281ZM0 50V0V50ZM50 0V50V0Z" fill="#AC1F25" mask="url(#path-1-inside-1_77_1277)"/>
<g clip-path="url(#clip0_77_1277)">
<path d="M26.805 20.5338L25.6127 21.7261L25.4248 21.9139C25.3004 22.038 25.1449 22.1262 24.9746 22.1693C24.8043 22.2124 24.6255 22.2088 24.4571 22.1589C24.3026 22.1128 24.1622 22.0285 24.0488 21.9139L23.5588 21.4239C23.4862 21.3506 23.4455 21.2515 23.4455 21.1483C23.4455 21.0451 23.4862 20.9461 23.5588 20.8727C23.5957 20.8366 23.6249 20.7934 23.6446 20.7457C23.6642 20.6979 23.6739 20.6466 23.6731 20.595C23.6731 20.5441 23.6631 20.4937 23.6434 20.4467C23.6238 20.3998 23.595 20.3572 23.5588 20.3214L23.0075 19.7702C22.9341 19.6976 22.8351 19.6569 22.7319 19.6569C22.6287 19.6569 22.5296 19.6976 22.4563 19.7702C22.383 19.8419 22.2851 19.8828 22.1827 19.8845C22.0787 19.8843 21.979 19.8433 21.905 19.7702L19.9777 17.8429L19.7 17.5652C19.6274 17.4918 19.5867 17.3928 19.5867 17.2896C19.5867 17.1864 19.6274 17.0873 19.7 17.0139L21.0802 15.6419C20.8258 15.3858 20.5131 15.1951 20.1689 15.0863C19.8247 14.9775 19.4592 14.9538 19.1038 15.0172C18.9056 15.0107 18.7172 14.9289 18.5771 14.7885C18.4728 14.6845 18.4005 14.5527 18.3688 14.4088C18.3323 14.2118 18.3749 14.0084 18.4872 13.8426C18.5995 13.6768 18.7727 13.5618 18.9691 13.5227C20.3166 13.2573 21.0802 13.4369 21.9091 14.2618L24.6613 17.0139C24.7338 17.0873 24.7745 17.1864 24.7745 17.2896C24.7745 17.3928 24.7338 17.4918 24.6613 17.5652C24.6243 17.6013 24.5951 17.6445 24.5754 17.6922C24.5558 17.74 24.5461 17.7912 24.5469 17.8429C24.5469 17.8938 24.5569 17.9442 24.5766 17.9911C24.5962 18.0381 24.625 18.0807 24.6613 18.1164L25.2125 18.6677C25.2859 18.7403 25.3849 18.781 25.4881 18.781C25.5913 18.781 25.6904 18.7403 25.7638 18.6677C25.837 18.596 25.9349 18.5551 26.0373 18.5534C26.1413 18.5535 26.241 18.5946 26.315 18.6677L26.805 19.1577C26.9874 19.3402 27.0898 19.5877 27.0898 19.8457C27.0898 20.1038 26.9874 20.3512 26.805 20.5338Z" fill="#9E9E9E"/>
<path d="M26.8058 19.1576L26.3158 18.6676C26.2418 18.5945 26.1421 18.5535 26.0381 18.5533C25.9357 18.555 25.8378 18.5959 25.7645 18.6676C25.6912 18.7402 25.5921 18.7809 25.4889 18.7809C25.3857 18.7809 25.2867 18.7402 25.2133 18.6676L24.662 18.1164C24.6258 18.0806 24.597 18.038 24.5774 17.9911C24.5577 17.9441 24.5476 17.8937 24.5477 17.8428C24.5469 17.7911 24.5566 17.7399 24.5762 17.6921C24.5959 17.6444 24.6251 17.6012 24.662 17.5651C24.7346 17.4917 24.7753 17.3927 24.7753 17.2895C24.7753 17.1863 24.7346 17.0872 24.662 17.0139L21.9099 14.2617C21.1549 13.5103 20.4489 13.2988 19.3116 13.4667C19.8397 13.5856 20.3188 13.863 20.6849 14.2617L23.437 17.0139C23.5096 17.0872 23.5503 17.1863 23.5503 17.2895C23.5503 17.3927 23.5096 17.4917 23.437 17.5651C23.4001 17.6012 23.3709 17.6444 23.3512 17.6921C23.3316 17.7399 23.3219 17.7911 23.3227 17.8428C23.3226 17.8937 23.3327 17.9441 23.3524 17.9911C23.372 18.038 23.4008 18.0806 23.437 18.1164L23.9883 18.6676C24.0617 18.7402 24.1607 18.7809 24.2639 18.7809C24.3671 18.7809 24.4662 18.7402 24.5395 18.6676C24.6128 18.5959 24.7107 18.555 24.8131 18.5533C24.9171 18.5535 25.0168 18.5945 25.0908 18.6676L25.5808 19.1576C25.7632 19.3401 25.8656 19.5876 25.8656 19.8456C25.8656 20.1037 25.7632 20.3511 25.5808 20.5337L24.3885 21.726L24.2006 21.9139C24.176 21.9345 24.1504 21.9538 24.1239 21.9718C24.2215 22.056 24.3351 22.1196 24.4579 22.1589C24.6263 22.2087 24.8051 22.2123 24.9754 22.1692C25.1457 22.1261 25.3012 22.0379 25.4256 21.9139L25.6135 21.726L26.8058 20.5337C26.9882 20.3511 27.0906 20.1037 27.0906 19.8456C27.0906 19.5876 26.9882 19.3401 26.8058 19.1576Z" fill="#707070"/>
<path d="M21.633 19.4965L15.2956 25.8379C15.2231 25.9108 15.1368 25.9685 15.0419 26.008C14.9469 26.0474 14.8451 26.0677 14.7423 26.0677C14.6395 26.0677 14.5377 26.0474 14.4428 26.008C14.3478 25.9685 14.2616 25.9108 14.189 25.8379L13.6419 25.2867C13.5682 25.215 13.5097 25.1293 13.4697 25.0346C13.4298 24.9399 13.4092 24.8382 13.4092 24.7354C13.4092 24.6327 13.4298 24.5309 13.4697 24.4363C13.5097 24.3416 13.5682 24.2559 13.6419 24.1842L19.9792 17.8428L21.633 19.4965Z" fill="#A0522D"/>
<path d="M36.7198 33.825H13.7797C13.707 33.8256 13.6359 33.8046 13.5751 33.7648C13.5144 33.725 13.4668 33.668 13.4384 33.6012C13.41 33.5344 13.4021 33.4606 13.4156 33.3892C13.4291 33.3179 13.4634 33.2521 13.5142 33.2002L24.4576 22.1589C24.626 22.2088 24.8048 22.2124 24.9751 22.1693C25.1454 22.1261 25.3009 22.0379 25.4253 21.9139L25.6132 21.7261L36.9852 33.2002C37.0361 33.2521 37.0704 33.3179 37.0839 33.3892C37.0974 33.4606 37.0894 33.5344 37.0611 33.6012C37.0327 33.668 36.9851 33.725 36.9244 33.7648C36.8636 33.8046 36.7925 33.8256 36.7198 33.825Z" fill="#FFDC00"/>
<path d="M36.9862 33.2002L25.6142 21.7261L25.4263 21.9139C25.2685 22.0685 25.0623 22.164 24.8424 22.1846L35.7612 33.2002C35.8121 33.2521 35.8464 33.3179 35.8599 33.3892C35.8734 33.4606 35.8654 33.5344 35.837 33.6012C35.8086 33.668 35.7611 33.725 35.7004 33.7648C35.6396 33.8046 35.5684 33.8256 35.4958 33.825H36.7208C36.7934 33.8256 36.8646 33.8046 36.9254 33.7648C36.9861 33.725 37.0336 33.668 37.062 33.6012C37.0904 33.5344 37.0984 33.4606 37.0849 33.3892C37.0714 33.3179 37.0371 33.2521 36.9862 33.2002Z" fill="#FEC108"/>
<path d="M35.8669 33.8251V36.6834C35.8565 36.8012 35.8001 36.9101 35.7099 36.9866C35.6196 37.063 35.5029 37.1008 35.385 37.0917H15.1154C14.9975 37.1008 14.8808 37.063 14.7906 36.9866C14.7004 36.9101 14.6439 36.8012 14.6335 36.6834V33.8251H35.8669Z" fill="#FEC108"/>
<path d="M25.2496 32.1917C27.0537 32.1917 28.5162 30.7291 28.5162 28.925C28.5162 27.1209 27.0537 25.6583 25.2496 25.6583C23.4454 25.6583 21.9829 27.1209 21.9829 28.925C21.9829 30.7291 23.4454 32.1917 25.2496 32.1917Z" fill="#00BCD4"/>
<path d="M25.2503 25.6583C25.0447 25.6589 24.8397 25.6787 24.6378 25.7175C25.383 25.8614 26.0548 26.2602 26.538 26.8455C27.0211 27.4308 27.2854 28.1661 27.2854 28.925C27.2854 29.6839 27.0211 30.4192 26.538 31.0045C26.0548 31.5898 25.383 31.9886 24.6378 32.1325C25.085 32.2188 25.5454 32.2106 25.9893 32.1085C26.4332 32.0064 26.8508 31.8126 27.2153 31.5395C27.5799 31.2664 27.8833 30.9201 28.1061 30.5229C28.3289 30.1256 28.4662 29.6861 28.5091 29.2327C28.552 28.7792 28.4996 28.3218 28.3552 27.8898C28.2109 27.4578 27.9778 27.0607 27.6709 26.7241C27.364 26.3875 26.9902 26.1189 26.5733 25.9353C26.1564 25.7518 25.7058 25.6574 25.2503 25.6583Z" fill="#0377BC"/>
<path d="M25.6591 28.7065V27.7C25.6591 27.5917 25.6161 27.4878 25.5395 27.4112C25.4629 27.3346 25.359 27.2916 25.2507 27.2916C25.1424 27.2916 25.0386 27.3346 24.962 27.4112C24.8854 27.4878 24.8424 27.5917 24.8424 27.7V28.925C24.8424 28.9922 24.859 29.0583 24.8907 29.1176C24.9224 29.1769 24.9682 29.2274 25.0241 29.2647L26.2491 30.0814C26.2937 30.1111 26.3438 30.1318 26.3964 30.1422C26.449 30.1526 26.5031 30.1526 26.5557 30.1421C26.6083 30.1316 26.6583 30.1108 26.7029 30.081C26.7475 30.0512 26.7857 30.0129 26.8155 29.9683C26.8452 29.9236 26.8659 29.8736 26.8763 29.821C26.8868 29.7684 26.8867 29.7142 26.8762 29.6616C26.8657 29.6091 26.845 29.559 26.8151 29.5145C26.7853 29.4699 26.747 29.4317 26.7024 29.4019L25.6591 28.7065Z" fill="#DADADA"/>
</g>
<defs>
<clipPath id="clip0_77_1277">
<rect width="24.5" height="24.5" fill="white" transform="translate(13 13)"/>
</clipPath>
</defs>
</svg>
