<svg width="50" height="50" viewBox="0 0 50 50" fill="none" xmlns="http://www.w3.org/2000/svg">
<mask id="path-1-inside-1_77_1282" fill="white">
<path d="M0 25C0 11.1929 11.1929 0 25 0C38.8071 0 50 11.1929 50 25C50 38.8071 38.8071 50 25 50C11.1929 50 0 38.8071 0 25Z"/>
</mask>
<path d="M0 25C0 11.1929 11.1929 0 25 0C38.8071 0 50 11.1929 50 25C50 38.8071 38.8071 50 25 50C11.1929 50 0 38.8071 0 25Z" fill="white"/>
<path d="M0 0H50H0ZM50 26.2281C50 40.0352 38.8071 51.2281 25 51.2281C11.1929 51.2281 0 40.0352 0 26.2281V25C0 38.1289 11.1929 48.7719 25 48.7719C38.8071 48.7719 50 38.1289 50 25V26.2281ZM0 50V0V50ZM50 0V50V0Z" fill="#AC1F25" mask="url(#path-1-inside-1_77_1282)"/>
<g clip-path="url(#clip0_77_1282)">
<mask id="mask0_77_1282" style="mask-type:luminance" maskUnits="userSpaceOnUse" x="14" y="14" width="23" height="23">
<path d="M14 14H36.5V36.5H14V14Z" fill="white"/>
</mask>
<g mask="url(#mask0_77_1282)">
<path d="M35.7263 35.717C35.2043 36.2204 34.5425 36.4907 33.8619 36.5C33.1534 36.5 32.4823 36.2204 31.9974 35.717L26.7305 30.45L26.9449 28.3711L28.8093 26.5067L30.45 26.7304L35.717 31.9975C36.2111 32.4915 36.5 33.1534 36.5 33.8619C36.4908 34.5424 36.2204 35.2043 35.7263 35.717Z" fill="#FF7816"/>
<path d="M35.7263 35.717C35.2043 36.2204 34.5425 36.4907 33.8619 36.5C33.1534 36.5 32.4823 36.2204 31.9974 35.717L26.7305 30.45L26.9449 28.3711L27.6627 27.6533L35.7263 35.717Z" fill="#FF4B00"/>
<path d="M19.9514 19.8679H19.8769L18.8887 19.8306L16.4835 19.4577C16.2972 19.4391 16.1293 19.3272 16.0268 19.1873L14.1157 16.3441C13.9293 16.0831 13.9759 15.7382 14.1997 15.5145L15.5141 14.2C15.7378 13.9576 16.1107 13.939 16.3717 14.1254L19.1777 16.1857C19.3269 16.2975 19.4201 16.4653 19.448 16.6424L19.8302 18.889L19.9514 19.8679Z" fill="#A7A7A7"/>
<path d="M14.8615 14.8526L19.8769 19.8679L18.8887 19.8306L16.4836 19.4577C16.2971 19.4391 16.1293 19.3272 16.0268 19.1874L14.1157 16.3441C13.9293 16.0831 13.9759 15.7382 14.1996 15.5145L14.8615 14.8526Z" fill="#777777"/>
<path d="M28.1107 24.3905C27.8497 24.1295 27.4395 24.1295 27.1784 24.3905L24.3911 27.1778C24.13 27.4389 24.13 27.849 24.3911 28.1101L26.731 30.45L30.4506 26.7304L28.1107 24.3905Z" fill="#FF4B00"/>
<path d="M24.7617 24.7527L24.7524 24.762C24.4728 25.0417 24.0532 24.9951 23.8388 24.762L18.8887 19.8306L19.8302 18.889L24.7617 23.8391C25.0227 24.0815 25.0228 24.5103 24.7617 24.7527Z" fill="#A7A7A7"/>
<path d="M21.434 33.7764L20.0075 32.3498C19.75 32.0924 19.3329 32.0924 19.0754 32.3498L16.4387 34.9866C16.1169 35.3083 16.2117 35.8503 16.6183 36.0461C17.2524 36.3519 17.9321 36.5 18.6087 36.5C19.5965 36.5 20.5659 36.1671 21.3775 35.5612C21.3657 35.417 21.3961 34.593 21.434 33.7764Z" fill="#777777"/>
<path d="M18.1484 30.4915L16.8841 29.2267L14.9229 29.1167C13.904 30.4847 13.7014 32.3238 14.4521 33.8807C14.6481 34.2876 15.1897 34.3823 15.5117 34.0603L18.1484 31.4236C18.4059 31.1661 18.4059 30.7489 18.1484 30.4915Z" fill="#A7A7A7"/>
<path d="M19.3641 19.3551L24.7617 24.7527L24.7524 24.7621C24.4727 25.0417 24.0532 24.9951 23.8388 24.7621L18.8887 19.8306L19.3641 19.3551Z" fill="#777777"/>
<path d="M28.5954 28.5855L26.731 30.45L24.3911 28.11C24.13 27.849 24.13 27.4389 24.3911 27.1778L25.7894 25.7795L28.5954 28.5855Z" fill="#D03B00"/>
<path d="M33.8802 14.4443C32.309 13.7035 30.4737 13.9067 29.1224 14.9225L28.9778 16.6385L30.4819 18.1432C30.7377 18.3989 31.1543 18.4017 31.4128 18.1445L34.063 15.5077C34.3849 15.1886 34.2947 14.6412 33.8802 14.4443Z" fill="#A7A7A7"/>
<path d="M35.5752 21.3746C36.5939 20.0226 36.7978 18.1922 36.0507 16.6284C35.8602 16.2288 35.3179 16.1154 34.9899 16.4463L32.3532 19.083C32.0957 19.3404 32.0957 19.7576 32.3532 20.0151L33.5378 21.1997L35.5752 21.3746Z" fill="#777777"/>
<path d="M32.3452 18.1386C29.4052 15.1987 29.1284 14.9218 29.1284 14.9218C27.4672 16.161 26.874 18.2968 27.5332 20.1557L20.1608 27.5426C18.302 26.8835 16.1531 27.4767 14.9138 29.1115L18.1438 32.3415C21.1233 35.321 21.387 35.5846 21.387 35.5846C23.035 34.3322 23.6282 32.1964 22.9559 30.3375L30.3413 22.9638C32.2001 23.623 34.3358 23.0297 35.5751 21.3686C34.2436 20.037 33.1889 18.9823 32.3452 18.1386Z" fill="#A7A7A7"/>
<path d="M35.5758 21.3686C34.3366 23.0297 32.2008 23.623 30.342 22.9639L22.9566 30.3376C23.6289 32.1964 23.0357 34.3322 21.3877 35.5846C21.3877 35.5846 21.1241 35.321 18.1445 32.3415L32.3459 18.1386C33.1896 18.9824 34.2444 20.0371 35.5758 21.3686Z" fill="#777777"/>
</g>
</g>
<defs>
<clipPath id="clip0_77_1282">
<rect width="22.5" height="22.5" fill="white" transform="translate(14 14)"/>
</clipPath>
</defs>
</svg>
