<svg width="50" height="50" viewBox="0 0 50 50" fill="none" xmlns="http://www.w3.org/2000/svg">
<mask id="path-1-inside-1_77_1318" fill="white">
<path d="M0 25C0 11.1929 11.1929 0 25 0C38.8071 0 50 11.1929 50 25C50 38.8071 38.8071 50 25 50C11.1929 50 0 38.8071 0 25Z"/>
</mask>
<path d="M0 25C0 11.1929 11.1929 0 25 0C38.8071 0 50 11.1929 50 25C50 38.8071 38.8071 50 25 50C11.1929 50 0 38.8071 0 25Z" fill="white"/>
<path d="M0 0H50H0ZM50 26.2281C50 40.0352 38.8071 51.2281 25 51.2281C11.1929 51.2281 0 40.0352 0 26.2281V25C0 38.1289 11.1929 48.7719 25 48.7719C38.8071 48.7719 50 38.1289 50 25V26.2281ZM0 50V0V50ZM50 0V50V0Z" fill="#AC1F25" mask="url(#path-1-inside-1_77_1318)"/>
<path d="M11.1875 24.4688H38.8125V37.2188H11.1875V24.4688Z" fill="#95AFD1"/>
<path d="M27.125 26.0625H38.8125V37.2188H27.125V26.0625Z" fill="#C1CFE8"/>
<path d="M40.9375 26.0625L34.0312 13.3125H15.9688L9.0625 26.0625H40.9375Z" fill="#822510"/>
<path d="M27.125 26.0625L34.0312 13.3125L40.9375 26.0625H27.125Z" fill="#822510"/>
<path d="M29.25 26.0625L34.0312 17.0312L38.8125 26.0625H29.25Z" fill="#DB432A"/>
<path d="M18.7169 21.9719L18.4587 22.127C18.2198 22.2692 17.9468 22.3441 17.6687 22.3438C17.2611 22.3438 16.8701 22.1819 16.5818 21.8938L16.3448 21.6568C16.2257 21.5377 16.0842 21.4432 15.9285 21.3788C15.7728 21.3143 15.606 21.2812 15.4375 21.2813C15.2691 21.2812 15.1023 21.3144 14.9467 21.3789C14.7911 21.4433 14.6497 21.5378 14.5306 21.6568L14.1843 22.0032C14.0764 22.1112 13.9482 22.1968 13.8072 22.2553C13.6662 22.3137 13.5151 22.3438 13.3624 22.3438C13.182 22.3438 13.004 22.3018 12.8427 22.2211C12.6813 22.1405 12.5409 22.0233 12.4327 21.8789L11.7915 21.0241L13.7964 17.3224L14.0265 17.6289C14.1347 17.7733 14.275 17.8905 14.4364 17.9711C14.5978 18.0518 14.7757 18.0938 14.9562 18.0938C15.1088 18.0938 15.2599 18.0637 15.401 18.0053C15.542 17.9468 15.6701 17.8612 15.778 17.7532L16.1244 17.4068C16.2435 17.2878 16.3848 17.1933 16.5404 17.1289C16.696 17.0644 16.8628 17.0312 17.0312 17.0313C17.1996 17.0312 17.3664 17.0644 17.522 17.1289C17.6776 17.1933 17.819 17.2878 17.9381 17.4068L18.175 17.6438C18.3178 17.7865 18.4874 17.8997 18.674 17.9769C18.8606 18.0541 19.0605 18.0938 19.2625 18.0938C19.5409 18.0936 19.8141 18.0179 20.053 17.8749L21.3604 17.0902L18.7169 21.9719Z" fill="#BA3A20"/>
<path d="M28.1232 20.4716L27.1893 19.9659L30.7927 13.3125H26.6448L23.342 19.4091L22.408 18.9034L25.4362 13.3125H23.4062L16.5 26.0625H18.3748L20.8143 21.5596L21.7482 22.0654L19.5834 26.0625H21.2967L27.1893 15.1846L28.1232 15.6904L22.5053 26.0625H24.0193L25.5955 23.1534L26.5295 23.6591L25.2279 26.0625H27.125L34.0312 13.3125H32.0013L28.1232 20.4716Z" fill="#E09C51"/>
<path d="M28.1231 20.4716L32.0013 13.3125H30.7927L27.1892 19.9659L28.1231 20.4716Z" fill="#E7D391"/>
<path d="M23.3419 19.4091L26.6447 13.3125H25.4361L22.408 18.9034L23.3419 19.4091Z" fill="#E7D391"/>
<path d="M27.1893 15.1846L21.2966 26.0624H22.5052L28.1232 15.6903L27.1893 15.1846Z" fill="#E7D391"/>
<path d="M25.5955 23.1533L24.0193 26.0624H25.2279L26.5294 23.6591L25.5955 23.1533Z" fill="#E7D391"/>
<path d="M20.8143 21.5596L18.3748 26.0624H19.5834L21.7482 22.0653L20.8143 21.5596Z" fill="#E7D391"/>
<path d="M12.7812 33.3937V37.2188H27.125V27.6562H18.5187C16.9971 27.6562 15.5377 28.2607 14.4617 29.3367C13.3857 30.4127 12.7813 31.8721 12.7812 33.3937Z" fill="#A5BADB"/>
<path d="M38.8125 37.2188V27.6562H32.5762C31.5531 27.6563 30.572 28.0627 29.8486 28.7861C29.1252 29.5095 28.7188 30.4906 28.7188 31.5137V37.2188H38.8125Z" fill="#D7E0EF"/>
</svg>
