 <svg width="50" height="50" viewBox="0 0 50 50" fill="none"
                                            xmlns="http://www.w3.org/2000/svg">
                                            <mask id="path-1-inside-1_77_1240" fill="white">
                                                <path
                                                    d="M0 25C0 11.1929 11.1929 0 25 0C38.8071 0 50 11.1929 50 25C50 38.8071 38.8071 50 25 50C11.1929 50 0 38.8071 0 25Z" />
                                            </mask>
                                            <path
                                                d="M0 25C0 11.1929 11.1929 0 25 0C38.8071 0 50 11.1929 50 25C50 38.8071 38.8071 50 25 50C11.1929 50 0 38.8071 0 25Z"
                                                fill="white" />
                                            <path
                                                d="M0 0H50H0ZM50 26.2281C50 40.0352 38.8071 51.2281 25 51.2281C11.1929 51.2281 0 40.0352 0 26.2281V25C0 38.1289 11.1929 48.7719 25 48.7719C38.8071 48.7719 50 38.1289 50 25V26.2281ZM0 50V0V50ZM50 0V50V0Z"
                                                fill="#AC1F25" mask="url(#path-1-inside-1_77_1240)" />
                                            <g clip-path="url(#clip0_77_1240)">
                                                <path
                                                    d="M22.5884 28.9278L20.4137 31.1026C20.1332 31.3825 19.6785 31.383 19.3981 31.1026C19.1176 30.8221 19.1176 30.3674 19.3981 30.087L21.5728 27.9122C21.8533 27.6318 22.308 27.6318 22.5884 27.9122C22.8689 28.1927 22.8689 28.6474 22.5884 28.9278Z"
                                                    fill="#384949" />
                                                <path
                                                    d="M22.5875 28.9278L20.4128 31.1026C20.1323 31.3825 19.6777 31.383 19.3972 31.1026L22.5875 27.9122C22.868 28.1927 22.868 28.6474 22.5875 28.9278Z"
                                                    fill="#293939" />
                                                <path
                                                    d="M34.7708 15.7291C31.132 12.0903 25.2109 12.0903 21.5721 15.7291C17.9333 19.3678 17.9333 25.289 21.5721 28.9278C25.2109 32.5666 31.132 32.5666 34.7708 28.9278C38.4096 25.289 38.4096 19.3678 34.7708 15.7291Z"
                                                    fill="#4A696F" />
                                                <path
                                                    d="M34.7707 28.9278C31.132 32.5666 25.2108 32.5666 21.572 28.9278L34.7707 15.7291C38.4095 19.3678 38.4095 25.289 34.7707 28.9278Z"
                                                    fill="#384949" />
                                                <path
                                                    d="M28.1718 30.225C32.533 30.225 36.0684 26.6895 36.0684 22.3283C36.0684 17.9671 32.533 14.4317 28.1718 14.4317C23.8106 14.4317 20.2751 17.9671 20.2751 22.3283C20.2751 26.6895 23.8106 30.225 28.1718 30.225Z"
                                                    fill="#FFF5F5" />
                                                <path
                                                    d="M33.7561 27.9121C30.6773 30.9914 25.6673 30.9914 22.5885 27.9121L33.7561 16.7446C36.8353 19.8234 36.8353 24.8333 33.7561 27.9121Z"
                                                    fill="#EFE2DD" />
                                                <path
                                                    d="M32.7408 17.7597C30.2215 15.2404 26.1228 15.2404 23.6035 17.7597C21.0842 20.2791 21.0842 24.3778 23.6035 26.8971C26.1228 29.4164 30.2215 29.4164 32.7408 26.8971C35.2602 24.3778 35.2602 20.279 32.7408 17.7597Z"
                                                    fill="#7FE881" />
                                                <path
                                                    d="M32.7406 26.8971C30.2213 29.4164 26.1226 29.4164 23.6033 26.8971L32.7406 17.7597C35.26 20.279 35.26 24.3778 32.7406 26.8971Z"
                                                    fill="#5BC980" />
                                                <path
                                                    d="M21.4281 32.1176L20.9203 32.6254L18.9997 31.5003L17.8745 29.5796L18.3823 29.0719C18.6623 28.7919 19.1174 28.7914 19.3974 29.0719L21.4281 31.1025C21.7085 31.383 21.7085 31.8371 21.4281 32.1176Z"
                                                    fill="#4A696F" />
                                                <path
                                                    d="M21.428 32.1177L20.9202 32.6255L18.9996 31.5003L20.4129 30.0875L21.428 31.1026C21.7085 31.383 21.7085 31.8372 21.428 32.1177Z"
                                                    fill="#384949" />
                                                <path
                                                    d="M19.3973 31.1026L17.8744 29.5797L13.21 34.2441C12.93 34.5246 12.93 34.9788 13.21 35.2592L15.2407 37.2899C15.5211 37.5704 15.9758 37.5699 16.2558 37.2899L20.9202 32.6255L19.3973 31.1026Z"
                                                    fill="#FFDA2D" />
                                                <path
                                                    d="M20.9206 32.6254L16.2562 37.2898C15.9762 37.5698 15.5215 37.5703 15.2411 37.2898L14.226 36.2747L19.3977 31.1025L20.9206 32.6254Z"
                                                    fill="#FDBF00" />
                                                <path
                                                    d="M31.5505 21.4004L27.961 24.9899C27.6806 25.2699 27.2259 25.2699 26.9455 24.9899L24.7918 22.8362C24.5118 22.5558 24.5118 22.1011 24.7918 21.8206C25.0722 21.5407 25.5269 21.5407 25.8074 21.8206L27.2431 23.2564L27.4532 23.467L30.5349 20.3848C30.8154 20.1049 31.27 20.1049 31.5505 20.3848C31.8305 20.6654 31.8305 21.12 31.5505 21.4004Z"
                                                    fill="#FFF5F5" />
                                                <path
                                                    d="M31.5515 21.4004L27.962 24.9899C27.6815 25.2699 27.2269 25.2699 26.9464 24.9899L26.2285 24.272L27.2441 23.2564L27.4542 23.467L30.5359 20.3848C30.8163 20.1049 31.271 20.1049 31.5515 20.3848C31.8314 20.6654 31.8314 21.12 31.5515 21.4004Z"
                                                    fill="#EFE2DD" />
                                            </g>
                                            <defs>
                                                <clipPath id="clip0_77_1240">
                                                    <rect width="24.5" height="24.5" fill="white"
                                                        transform="translate(13 13)" />
                                                </clipPath>
                                            </defs>
                                        </svg>