<svg width="50" height="50" viewBox="0 0 50 50" fill="none" xmlns="http://www.w3.org/2000/svg">
<mask id="path-1-inside-1_77_1264" fill="white">
<path d="M0 25C0 11.1929 11.1929 0 25 0C38.8071 0 50 11.1929 50 25C50 38.8071 38.8071 50 25 50C11.1929 50 0 38.8071 0 25Z"/>
</mask>
<path d="M0 25C0 11.1929 11.1929 0 25 0C38.8071 0 50 11.1929 50 25C50 38.8071 38.8071 50 25 50C11.1929 50 0 38.8071 0 25Z" fill="white"/>
<path d="M0 0H50H0ZM50 26.2281C50 40.0352 38.8071 51.2281 25 51.2281C11.1929 51.2281 0 40.0352 0 26.2281V25C0 38.1289 11.1929 48.7719 25 48.7719C38.8071 48.7719 50 38.1289 50 25V26.2281ZM0 50V0V50ZM50 0V50V0Z" fill="#AC1F25" mask="url(#path-1-inside-1_77_1264)"/>
<g clip-path="url(#clip0_77_1264)">
<path d="M19.4366 24.3249C22.0186 24.3249 24.1117 22.2318 24.1117 19.6499C24.1117 17.0679 22.0186 14.9749 19.4366 14.9749C16.8547 14.9749 14.7616 17.0679 14.7616 19.6499C14.7616 22.2318 16.8547 24.3249 19.4366 24.3249Z" fill="#DB735C"/>
<path d="M19.4382 12H20.2882V13.6998H19.4382V12Z" fill="#E3684D"/>
<path d="M12.2131 19.2249H13.9129V20.0749H12.2131V19.2249Z" fill="#E3684D"/>
<path d="M14.097 14.5826L14.6891 13.9727L15.983 15.2286L15.391 15.8385L14.097 14.5826Z" fill="#E3684D"/>
<path d="M13.3912 24.1935L14.6467 22.8992L15.2568 23.491L14.0013 24.7853L13.3912 24.1935Z" fill="#E3684D"/>
<path d="M23.4569 15.1175L24.7124 13.8232L25.3225 14.4151L24.067 15.7094L23.4569 15.1175Z" fill="#E3684D"/>
<path d="M26.2373 32.3999H31.7624C34.8071 32.296 37.2874 29.9454 37.2874 27.2999C37.2874 24.8817 35.2855 23.033 32.6124 22.6248C32.0296 20.4189 29.5025 18.7998 26.6623 18.7998C23.856 18.7998 21.7559 20.4583 21.1373 22.6248C19.4128 22.6479 17.7877 23.4454 17.3122 24.7499C17.1821 24.7401 17.0203 24.7499 16.8872 24.7499C14.4922 24.7499 12.6372 26.4882 12.6372 28.5749C12.6372 30.6615 14.4922 32.3999 16.8872 32.3999H24.5373" fill="#0E94EB"/>
<path d="M27.9367 29.4249H25.3867L26.6617 26.0249H23.3416L21.9867 31.1249H24.9617L23.2617 37.5L27.9367 29.4249Z" fill="#E3B658"/>
<path d="M15.6117 33.6749H16.4617V37.5H15.6117V33.6749Z" fill="#4FBCD6"/>
<path d="M19.0121 33.6749H19.8621V37.5H19.0121V33.6749Z" fill="#4FBCD6"/>
<path d="M30.0616 33.6749H30.9117V37.5H30.0616V33.6749Z" fill="#4FBCD6"/>
<path d="M33.4623 33.6749H34.3123V37.5H33.4623V33.6749Z" fill="#4FBCD6"/>
</g>
<defs>
<clipPath id="clip0_77_1264">
<rect width="25.5" height="25.5" fill="white" transform="translate(12 12)"/>
</clipPath>
</defs>
</svg>
