<svg width="50" height="50" viewBox="0 0 50 50" fill="none" xmlns="http://www.w3.org/2000/svg">
<mask id="path-1-inside-1_77_1245" fill="white">
<path d="M0 25C0 11.1929 11.1929 0 25 0C38.8071 0 50 11.1929 50 25C50 38.8071 38.8071 50 25 50C11.1929 50 0 38.8071 0 25Z"/>
</mask>
<path d="M0 25C0 11.1929 11.1929 0 25 0C38.8071 0 50 11.1929 50 25C50 38.8071 38.8071 50 25 50C11.1929 50 0 38.8071 0 25Z" fill="white"/>
<path d="M0 0H50H0ZM50 26.2281C50 40.0352 38.8071 51.2281 25 51.2281C11.1929 51.2281 0 40.0352 0 26.2281V25C0 38.1289 11.1929 48.7719 25 48.7719C38.8071 48.7719 50 38.1289 50 25V26.2281ZM0 50V0V50ZM50 0V50V0Z" fill="#AC1F25" mask="url(#path-1-inside-1_77_1245)"/>
<g clip-path="url(#clip0_77_1245)">
<path d="M26.4705 26.6378L26.1492 25.2847C26.135 25.2251 26.1052 25.1704 26.0629 25.1261C26.0205 25.0819 25.9671 25.0498 25.9081 25.0331C25.8492 25.0164 25.7869 25.0157 25.7276 25.0311C25.6683 25.0466 25.6142 25.0775 25.5709 25.1208L23.5192 27.172L22.7064 26.7929L22.3272 25.9801L24.378 23.9293C24.4214 23.8861 24.4525 23.832 24.4681 23.7727C24.4836 23.7135 24.483 23.6511 24.4664 23.5921C24.4497 23.5331 24.4176 23.4797 24.3733 23.4373C24.329 23.3949 24.2742 23.3651 24.2146 23.351L22.8615 23.0297C22.7281 22.9974 22.5885 23.0001 22.4564 23.0375C22.3243 23.0749 22.2041 23.1457 22.1074 23.2431L20.3242 25.0254C20.1582 25.1909 20.0418 25.3996 19.9884 25.6279C19.9349 25.8562 19.9465 26.0949 20.0218 26.317L20.3857 27.4084L13.3532 34.4382C13.127 34.6649 13 34.972 13 35.2922C13 35.6123 13.127 35.9195 13.3532 36.1461C13.4652 36.2583 13.5983 36.3473 13.7448 36.408C13.8913 36.4687 14.0483 36.5 14.2069 36.5C14.3655 36.5 14.5225 36.4687 14.669 36.408C14.8154 36.3473 14.9485 36.2583 15.0606 36.1461L22.0909 29.1158L23.1823 29.4798C23.4046 29.5547 23.6434 29.5658 23.8717 29.512C24.0999 29.4581 24.3086 29.3414 24.4739 29.175L26.2571 27.3919C26.3545 27.2952 26.4254 27.175 26.4628 27.0429C26.5002 26.9107 26.5028 26.7712 26.4705 26.6378Z" fill="#FF7B79"/>
<path d="M23.0194 26.9389L23.1654 27.252L23.9782 27.6311L26.029 25.5799C26.0753 25.5342 26.1335 25.5023 26.197 25.4881L26.1483 25.2848C26.1341 25.2252 26.1043 25.1704 26.062 25.1262C26.0196 25.0819 25.9662 25.0498 25.9072 25.0331C25.8483 25.0164 25.786 25.0157 25.7267 25.0312C25.6674 25.0466 25.6133 25.0776 25.57 25.1209L23.5192 27.1721L23.0194 26.9389Z" fill="#FF5A58"/>
<path d="M13.8122 34.8972L20.8424 27.8674L20.4807 26.7759C20.4055 26.5539 20.3939 26.3152 20.4474 26.0869C20.5008 25.8586 20.6172 25.6499 20.7832 25.4844L22.5664 23.7012C22.6631 23.6038 22.7833 23.5329 22.9154 23.4956C23.0475 23.4582 23.187 23.4555 23.3205 23.4878L24.4679 23.7632C24.4884 23.6749 24.4731 23.5821 24.4252 23.5052C24.3774 23.4283 24.301 23.3735 24.2127 23.3528L22.8597 23.0315C22.7262 22.9993 22.5867 23.0019 22.4546 23.0393C22.3225 23.0767 22.2023 23.1475 22.1055 23.245L20.3242 25.0254C20.1582 25.1909 20.0418 25.3996 19.9884 25.6279C19.9349 25.8562 19.9465 26.0949 20.0218 26.3169L20.3857 27.4084L13.3532 34.4382C13.127 34.6649 13 34.972 13 35.2922C13 35.6123 13.127 35.9194 13.3532 36.1461C13.4307 36.2241 13.5185 36.2909 13.6143 36.3448C13.4851 36.1149 13.4345 35.8491 13.4702 35.5878C13.5059 35.3265 13.626 35.084 13.8122 34.8972Z" fill="#FF5A58"/>
<path d="M28.353 15.2949H15.1802C15.0889 15.2949 15.0013 15.3312 14.9368 15.3957C14.8722 15.4603 14.8359 15.5479 14.8359 15.6392V22.0649C14.8359 22.1562 14.8722 22.2438 14.9368 22.3084C15.0013 22.3729 15.0889 22.4092 15.1802 22.4092H26.5171C26.6692 22.4094 26.815 22.4699 26.9225 22.5775C27.0301 22.685 27.0906 22.8308 27.0908 22.9829V34.3198C27.0908 34.4111 27.1271 34.4987 27.1916 34.5632C27.2562 34.6278 27.3438 34.6641 27.4351 34.6641H33.8608C33.9521 34.6641 34.0397 34.6278 34.1043 34.5632C34.1688 34.4987 34.2051 34.4111 34.2051 34.3198V21.147C34.2033 19.5955 33.5861 18.108 32.489 17.011C31.392 15.9139 29.9045 15.2967 28.353 15.2949Z" fill="#80B6FF"/>
<path d="M28.812 33.2871C28.7207 33.2871 28.6332 33.2508 28.5686 33.1863C28.504 33.1217 28.4678 33.0342 28.4678 32.9429V21.606C28.4675 21.4539 28.407 21.3081 28.2995 21.2005C28.1919 21.093 28.0461 21.0325 27.894 21.0322H16.5571C16.4658 21.0322 16.3783 20.996 16.3137 20.9314C16.2492 20.8668 16.2129 20.7793 16.2129 20.688V15.2949H15.1802C15.0889 15.2949 15.0013 15.3312 14.9368 15.3957C14.8722 15.4603 14.8359 15.5479 14.8359 15.6392V22.0649C14.8359 22.1562 14.8722 22.2438 14.9368 22.3084C15.0013 22.3729 15.0889 22.4092 15.1802 22.4092H26.5171C26.6692 22.4094 26.815 22.4699 26.9225 22.5775C27.0301 22.685 27.0906 22.8308 27.0908 22.9829V34.3198C27.0908 34.4111 27.1271 34.4987 27.1916 34.5632C27.2562 34.6278 27.3438 34.6641 27.4351 34.6641H33.8608C33.9521 34.6641 34.0397 34.6278 34.1043 34.5632C34.1688 34.4987 34.2051 34.4111 34.2051 34.3198V33.2871H28.812Z" fill="#60A4FF"/>
<path d="M32.2381 16.7747L31.0975 17.9153L29.3791 17.6551L28.6511 16.9973C28.5824 16.9445 28.4962 16.9196 28.4099 16.9275C28.3236 16.9355 28.2434 16.9757 28.1854 17.0401C28.1275 17.1046 28.096 17.1886 28.0972 17.2752C28.0984 17.3619 28.1323 17.4449 28.1921 17.5077L28.7558 18.0181L28.2311 18.6754C28.2028 18.7106 28.1817 18.751 28.169 18.7944C28.1563 18.8378 28.1523 18.8833 28.1572 18.9282C28.1621 18.9731 28.1758 19.0167 28.1976 19.0563C28.2193 19.0959 28.2486 19.1309 28.2839 19.1591C28.3553 19.2159 28.4463 19.242 28.5369 19.2318C28.6275 19.2216 28.7103 19.1758 28.7672 19.1045L29.3699 18.3495L30.493 18.5198L29.5167 19.4956C29.4561 19.5563 29.4202 19.6375 29.4163 19.7233C29.4124 19.809 29.4407 19.8932 29.4956 19.9592L30.5329 21.2076L29.8642 23.0977C29.8483 23.1405 29.841 23.1861 29.8429 23.2317C29.8447 23.2773 29.8556 23.3222 29.875 23.3635C29.8943 23.4049 29.9217 23.442 29.9556 23.4727C29.9894 23.5034 30.029 23.5271 30.0721 23.5423C30.1151 23.5575 30.1608 23.564 30.2064 23.5614C30.252 23.5588 30.2966 23.5472 30.3377 23.5272C30.3788 23.5071 30.4154 23.4791 30.4456 23.4448C30.4757 23.4105 30.4987 23.3705 30.5132 23.3272L31.2476 21.2526C31.2675 21.1963 31.2724 21.1358 31.2619 21.0771C31.2514 21.0183 31.2257 20.9633 31.1875 20.9175L30.2236 19.7609L32.7228 17.2617C32.5707 17.0902 32.4089 16.9276 32.2381 16.7747Z" fill="#FAF7F5"/>
<path d="M34.1645 14.4894C34.1466 14.2129 34.0699 13.9434 33.9395 13.6989C33.8092 13.4545 33.6282 13.2406 33.4086 13.0716C33.3729 13.0426 33.3318 13.0211 33.2877 13.0083C33.2436 12.9955 33.1973 12.9917 33.1517 12.997C33.1061 13.0024 33.062 13.0168 33.022 13.0394C32.9821 13.0621 32.947 13.0925 32.919 13.1289C32.891 13.1653 32.8705 13.2069 32.8588 13.2513C32.8471 13.2958 32.8445 13.3421 32.8509 13.3875C32.8574 13.433 32.873 13.4767 32.8966 13.5161C32.9202 13.5555 32.9515 13.5898 32.9886 13.6169C33.1306 13.7261 33.2476 13.8645 33.3319 14.0226C33.4162 14.1807 33.4658 14.3549 33.4774 14.5337C33.489 14.7125 33.4623 14.8917 33.3992 15.0594C33.336 15.2271 33.2378 15.3793 33.1112 15.506L32.6288 15.9884C32.5959 16.0202 32.5697 16.0582 32.5517 16.1002C32.5337 16.1422 32.5242 16.1874 32.5238 16.2331C32.5234 16.2788 32.5322 16.3241 32.5495 16.3664C32.5668 16.4087 32.5924 16.4471 32.6247 16.4795C32.6571 16.5118 32.6955 16.5373 32.7378 16.5546C32.7802 16.5719 32.8255 16.5806 32.8712 16.5802C32.9169 16.5797 32.9621 16.5702 33.0041 16.5522C33.046 16.5341 33.084 16.5079 33.1158 16.475L33.5977 15.993C33.7937 15.7971 33.9456 15.5617 34.0433 15.3024C34.1411 15.0431 34.1824 14.7659 34.1645 14.4894Z" fill="#80B6FF"/>
<path d="M36.4664 16.7233C36.3746 16.531 36.2426 16.3606 36.0792 16.2238C35.9158 16.0869 35.7249 15.9868 35.5194 15.9303C35.314 15.8737 35.0988 15.8619 34.8884 15.8958C34.678 15.9297 34.4773 16.0084 34.3 16.1266L34.0866 16.2693C34.0117 16.3205 33.96 16.399 33.9427 16.488C33.9254 16.577 33.9439 16.6692 33.9942 16.7446C34.0445 16.82 34.1225 16.8726 34.2113 16.8908C34.3001 16.9091 34.3925 16.8916 34.4684 16.8422L34.6823 16.6994C34.7776 16.6361 34.8854 16.5939 34.9984 16.5759C35.1113 16.5578 35.2269 16.5642 35.3372 16.5947C35.4475 16.6251 35.5499 16.6789 35.6376 16.7524C35.7253 16.8259 35.7961 16.9174 35.8454 17.0207C35.8643 17.0623 35.8914 17.0998 35.925 17.1308C35.9586 17.1619 35.9981 17.1859 36.041 17.2015C36.084 17.2172 36.1297 17.2241 36.1754 17.2218C36.2211 17.2196 36.2659 17.2083 36.3072 17.1886C36.3484 17.1688 36.3854 17.1411 36.4158 17.1069C36.4462 17.0727 36.4695 17.0328 36.4843 16.9896C36.4991 16.9463 36.5052 16.9005 36.5021 16.8549C36.499 16.8092 36.4869 16.7646 36.4664 16.7237V16.7233Z" fill="#80B6FF"/>
<path d="M34.8491 15.5933C34.92 15.5935 34.9892 15.5715 35.0469 15.5304C35.3489 15.3181 35.5666 15.0064 35.6617 14.6497C35.7569 14.293 35.7235 13.9143 35.5674 13.5798C35.5119 13.4604 35.4669 13.3663 35.4339 13.3002C35.3714 13.1736 35.2847 13.0001 35.0639 13.0001C34.9726 13.0001 34.8851 13.0363 34.8205 13.1009C34.756 13.1654 34.7197 13.253 34.7197 13.3443C34.7195 13.4206 34.7448 13.4948 34.7918 13.555C34.8074 13.5839 34.8477 13.6633 34.9441 13.8703C35.0319 14.0585 35.0507 14.2715 34.9972 14.4721C34.9438 14.6727 34.8215 14.8482 34.6518 14.9677C34.5921 15.0098 34.5473 15.0698 34.5239 15.139C34.5006 15.2082 34.4998 15.283 34.5218 15.3527C34.5438 15.4223 34.5873 15.4832 34.6462 15.5264C34.705 15.5697 34.7761 15.5931 34.8491 15.5933Z" fill="#80B6FF"/>
<path d="M14.7212 13.918H13.3442C13.2529 13.918 13.1654 13.9542 13.1008 14.0188C13.0363 14.0834 13 14.1709 13 14.2622V23.4419C13 23.5332 13.0363 23.6208 13.1008 23.6853C13.1654 23.7499 13.2529 23.7861 13.3442 23.7861H14.7212C14.9341 23.7859 15.1383 23.7012 15.2889 23.5506C15.4395 23.4 15.5242 23.1959 15.5244 22.9829V14.7212C15.5242 14.5082 15.4395 14.3041 15.2889 14.1535C15.1383 14.0029 14.9341 13.9182 14.7212 13.918Z" fill="#FFCD69"/>
<path d="M34.7788 33.9756H26.5171C26.3041 33.9758 26.1 34.0605 25.9494 34.2111C25.7988 34.3617 25.7141 34.5659 25.7139 34.7788V36.1558C25.7139 36.2471 25.7501 36.3346 25.8147 36.3992C25.8792 36.4637 25.9668 36.5 26.0581 36.5H35.2378C35.3291 36.5 35.4166 36.4637 35.4812 36.3992C35.5458 36.3346 35.582 36.2471 35.582 36.1558V34.7788C35.5818 34.5659 35.4971 34.3617 35.3465 34.2111C35.1959 34.0605 34.9918 33.9758 34.7788 33.9756Z" fill="#FFCD69"/>
<path d="M14.2622 14.8359H15.5244V14.7212C15.5242 14.5082 15.4395 14.3041 15.2889 14.1535C15.1383 14.0029 14.9341 13.9182 14.7212 13.918H13.3442C13.2529 13.918 13.1654 13.9542 13.1008 14.0188C13.0363 14.0834 13 14.1709 13 14.2622V23.4419C13 23.5332 13.0363 23.6208 13.1008 23.6853C13.1654 23.7499 13.2529 23.7861 13.3442 23.7861H13.918V15.1802C13.918 15.0889 13.9542 15.0013 14.0188 14.9368C14.0834 14.8722 14.1709 14.8359 14.2622 14.8359Z" fill="#FFC144"/>
<path d="M27.4351 34.8936H35.582V34.7788C35.5818 34.5659 35.4971 34.3617 35.3465 34.2111C35.1959 34.0605 34.9918 33.9758 34.7788 33.9756H26.5171C26.3041 33.9758 26.1 34.0605 25.9494 34.2111C25.7988 34.3617 25.7141 34.5659 25.7139 34.7788V36.1558C25.7139 36.2471 25.7501 36.3346 25.8147 36.3992C25.8792 36.4637 25.9668 36.5 26.0581 36.5H26.6318V35.6968C26.6321 35.4838 26.7168 35.2797 26.8674 35.1291C27.0179 34.9785 27.2221 34.8938 27.4351 34.8936Z" fill="#FFC144"/>
</g>
<defs>
<clipPath id="clip0_77_1245">
<rect width="23.5" height="23.5" fill="white" transform="translate(13 13)"/>
</clipPath>
</defs>
</svg>
