<svg width="50" height="50" viewBox="0 0 50 50" fill="none" xmlns="http://www.w3.org/2000/svg">
<mask id="path-1-inside-1_77_1326" fill="white">
<path d="M0 25C0 11.1929 11.1929 0 25 0C38.8071 0 50 11.1929 50 25C50 38.8071 38.8071 50 25 50C11.1929 50 0 38.8071 0 25Z"/>
</mask>
<path d="M0 25C0 11.1929 11.1929 0 25 0C38.8071 0 50 11.1929 50 25C50 38.8071 38.8071 50 25 50C11.1929 50 0 38.8071 0 25Z" fill="white"/>
<path d="M0 0H50H0ZM50 26.2281C50 40.0352 38.8071 51.2281 25 51.2281C11.1929 51.2281 0 40.0352 0 26.2281V25C0 38.1289 11.1929 48.7719 25 48.7719C38.8071 48.7719 50 38.1289 50 25V26.2281ZM0 50V0V50ZM50 0V50V0Z" fill="#AC1F25" mask="url(#path-1-inside-1_77_1326)"/>
<g clip-path="url(#clip0_77_1326)">
<path d="M16.6438 19.3734C16.0427 19.378 15.5563 19.8643 15.5518 20.4654V29.2011C15.5518 29.8042 16.0408 30.2931 16.6438 30.2931C17.2468 30.2931 17.7358 29.8042 17.7358 29.2011V20.4654C17.7339 19.8631 17.2461 19.3753 16.6438 19.3734Z" fill="#41769E"/>
<path d="M30.2933 16.6437C30.2913 16.0414 29.8035 15.5536 29.2012 15.5516H20.4656C19.8645 15.5562 19.3781 16.0426 19.3735 16.6437C19.3755 17.246 19.8633 17.7337 20.4656 17.7357H29.2012C29.8035 17.7337 30.2913 17.246 30.2933 16.6437Z" fill="#41769E"/>
<path d="M33.0229 19.3734C32.4206 19.3753 31.9328 19.8631 31.9309 20.4654V29.2011C31.9328 29.8034 32.4206 30.2912 33.0229 30.2931C33.624 30.2886 34.1104 29.8022 34.1147 29.2011V20.4654C34.113 19.8631 33.6252 19.3753 33.0229 19.3734Z" fill="#41769E"/>
<path d="M27.5631 37.9369C27.5631 36.4293 24.8333 32.4771 24.8333 32.4771C24.8333 32.4771 22.1035 36.4293 22.1035 37.9369C22.1035 39.4445 23.3258 40.6667 24.8333 40.6667C26.3409 40.6667 27.5631 39.4445 27.5631 37.9369Z" fill="#2488FF"/>
<path d="M30.2931 20.4655C29.6898 20.4655 29.2011 19.9768 29.2011 19.3735V17.7357H24.8333V24.8334H31.9309V20.4655H30.2931Z" fill="#96C8EF"/>
<path d="M17.7358 24.8334V29.2012H23.7453L27.0173 25.9254L26.4713 29.2012H31.9312V24.8334H17.7358Z" fill="#78B9EB"/>
<path d="M24.8335 17.7357H20.4657V19.3735C20.4657 19.9768 19.9769 20.4655 19.3736 20.4655H17.7358V24.8334H24.8335V17.7357Z" fill="#5AAAE7"/>
<path d="M20.4656 9H24.8334V15.5516H20.4656V9Z" fill="#5AAAE7"/>
<path d="M24.8333 9H29.2011V15.5516H24.8333V9Z" fill="#96C8EF"/>
<path d="M9 24.8334H15.5516V29.2012H9V24.8334Z" fill="#78B9EB"/>
<path d="M9 20.4655H15.5516V24.8333H9V20.4655Z" fill="#5AAAE7"/>
<path d="M34.115 24.8334H40.6666V29.2012H34.115V24.8334Z" fill="#78B9EB"/>
<path d="M34.115 20.4655H40.6666V24.8333H34.115V20.4655Z" fill="#96C8EF"/>
</g>
<defs>
<clipPath id="clip0_77_1326">
<rect width="31.6667" height="31.6667" fill="white" transform="translate(9 9)"/>
</clipPath>
</defs>
</svg>
